<svg width="22" height="22" viewBox="0 0 22 22" fill="none" xmlns="http://www.w3.org/2000/svg">
<path d="M18.0268 7.84969C18.0268 7.99943 18.0268 8.14916 18.0268 8.28018C18.0268 12.8283 14.5455 18.0877 8.18188 18.0877C6.19792 18.1064 4.40113 17.5449 2.84766 16.5529C3.10969 16.5903 3.39044 16.5903 3.67119 16.5903C5.29953 16.5903 6.79685 16.0476 7.976 15.1117C6.45996 15.0743 5.18723 14.0823 4.73803 12.716C4.94391 12.7534 5.18723 12.7534 5.37439 12.7534C5.67386 12.7534 5.99204 12.716 6.27279 12.6224C4.7006 12.323 3.48402 10.9005 3.48402 9.25344C3.48402 9.216 3.48402 9.216 3.48402 9.216C3.95193 9.47804 4.49471 9.62777 5.05621 9.64649C4.12038 9.02884 3.50274 7.98071 3.50274 6.76413C3.50274 6.12777 3.6899 5.54756 3.97065 5.04221C5.67386 7.11975 8.21931 8.50478 11.083 8.63579C11.0455 8.37376 11.0081 8.11173 11.0081 7.83098C11.0268 5.95932 12.5616 4.42456 14.4707 4.42456C15.4813 4.42456 16.361 4.83633 16.9974 5.49141C17.8022 5.34167 18.5134 5.06092 19.1872 4.64916C18.9252 5.45397 18.3824 6.12777 17.6712 6.53953C18.3637 6.46467 19.0375 6.2775 19.6551 5.99675C19.2808 6.74542 18.6819 7.34435 18.0268 7.84969Z" fill="#20C997"/>
<path d="M18.0268 7.84969C18.0268 7.99943 18.0268 8.14916 18.0268 8.28018C18.0268 12.8283 14.5455 18.0877 8.18188 18.0877C6.19792 18.1064 4.40113 17.5449 2.84766 16.5529C3.10969 16.5903 3.39044 16.5903 3.67119 16.5903C5.29953 16.5903 6.79685 16.0476 7.976 15.1117C6.45996 15.0743 5.18723 14.0823 4.73803 12.716C4.94391 12.7534 5.18723 12.7534 5.37439 12.7534C5.67386 12.7534 5.99204 12.716 6.27279 12.6224C4.7006 12.323 3.48402 10.9005 3.48402 9.25344C3.48402 9.216 3.48402 9.216 3.48402 9.216C3.95193 9.47804 4.49471 9.62777 5.05621 9.64649C4.12038 9.02884 3.50274 7.98071 3.50274 6.76413C3.50274 6.12777 3.6899 5.54756 3.97065 5.04221C5.67386 7.11975 8.21931 8.50478 11.083 8.63579C11.0455 8.37376 11.0081 8.11173 11.0081 7.83098C11.0268 5.95932 12.5616 4.42456 14.4707 4.42456C15.4813 4.42456 16.361 4.83633 16.9974 5.49141C17.8022 5.34167 18.5134 5.06092 19.1872 4.64916C18.9252 5.45397 18.3824 6.12777 17.6712 6.53953C18.3637 6.46467 19.0375 6.2775 19.6551 5.99675C19.2808 6.74542 18.6819 7.34435 18.0268 7.84969Z" fill="#20C997"/>
</svg>
