<svg width="22" height="22" viewBox="0 0 22 22" fill="none" xmlns="http://www.w3.org/2000/svg">
<path d="M17.9267 7.52975C17.9267 7.67948 17.9267 7.82921 17.9267 7.96023C17.9267 12.5084 14.4454 17.7677 8.08178 17.7677C6.09783 17.7864 4.30103 17.2249 2.74756 16.233C3.00959 16.2704 3.29034 16.2704 3.57109 16.2704C5.19943 16.2704 6.69676 15.7276 7.8759 14.7918C6.35986 14.7543 5.08713 13.7624 4.63793 12.3961C4.84382 12.4335 5.08713 12.4335 5.2743 12.4335C5.57376 12.4335 5.89194 12.3961 6.17269 12.3025C4.6005 12.003 3.38392 10.5806 3.38392 8.93349C3.38392 8.89606 3.38392 8.89606 3.38392 8.89606C3.85184 9.15809 4.39462 9.30782 4.95611 9.32654C4.02029 8.70889 3.40264 7.66076 3.40264 6.44419C3.40264 5.80782 3.5898 5.22761 3.87055 4.72226C5.57376 6.7998 8.11922 8.18483 10.9829 8.31584C10.9454 8.05381 10.908 7.79178 10.908 7.51103C10.9267 5.63937 12.4615 4.10461 14.3706 4.10461C15.3812 4.10461 16.2609 4.51638 16.8973 5.17146C17.7021 5.02173 18.4133 4.74098 19.0871 4.32921C18.8251 5.13403 18.2823 5.80782 17.5711 6.21959C18.2636 6.14472 18.9374 5.95756 19.555 5.67681C19.1807 6.42547 18.5818 7.0244 17.9267 7.52975Z" fill="#20C997"/>
<path d="M17.9267 7.52975C17.9267 7.67948 17.9267 7.82921 17.9267 7.96023C17.9267 12.5084 14.4454 17.7677 8.08178 17.7677C6.09783 17.7864 4.30103 17.2249 2.74756 16.233C3.00959 16.2704 3.29034 16.2704 3.57109 16.2704C5.19943 16.2704 6.69676 15.7276 7.8759 14.7918C6.35986 14.7543 5.08713 13.7624 4.63793 12.3961C4.84382 12.4335 5.08713 12.4335 5.2743 12.4335C5.57376 12.4335 5.89194 12.3961 6.17269 12.3025C4.6005 12.003 3.38392 10.5806 3.38392 8.93349C3.38392 8.89606 3.38392 8.89606 3.38392 8.89606C3.85184 9.15809 4.39462 9.30782 4.95611 9.32654C4.02029 8.70889 3.40264 7.66076 3.40264 6.44419C3.40264 5.80782 3.5898 5.22761 3.87055 4.72226C5.57376 6.7998 8.11922 8.18483 10.9829 8.31584C10.9454 8.05381 10.908 7.79178 10.908 7.51103C10.9267 5.63937 12.4615 4.10461 14.3706 4.10461C15.3812 4.10461 16.2609 4.51638 16.8973 5.17146C17.7021 5.02173 18.4133 4.74098 19.0871 4.32921C18.8251 5.13403 18.2823 5.80782 17.5711 6.21959C18.2636 6.14472 18.9374 5.95756 19.555 5.67681C19.1807 6.42547 18.5818 7.0244 17.9267 7.52975Z" fill="#20C997"/>
</svg>
