<svg width="22" height="22" viewBox="0 0 22 22" fill="none" xmlns="http://www.w3.org/2000/svg">
<path d="M11.659 15.2451C10.6295 15.1889 10.1991 14.6649 9.41297 14.1595C8.98248 16.4804 8.40227 18.7076 6.83008 19.8681C6.34345 16.3681 7.54131 13.729 8.12152 10.9403C7.16698 9.31192 8.25254 6.03652 10.2739 6.84133C12.8007 7.85203 8.1028 12.8868 11.2285 13.5231C14.5226 14.1782 15.8515 7.81459 13.8114 5.77449C10.8729 2.76112 5.25788 5.6809 5.9504 9.94828C6.11885 10.9964 7.20441 11.2959 6.38088 12.7558C4.49051 12.344 3.94772 10.8467 4.00387 8.88144C4.11617 5.64347 6.90494 3.39748 9.71243 3.06058C13.2686 2.64882 16.6001 4.35203 17.0493 7.68358C17.5547 11.4456 15.4771 15.5258 11.659 15.2451Z" fill="#20C997"/>
</svg>
