<svg width="22" height="22" viewBox="0 0 22 22" fill="none" xmlns="http://www.w3.org/2000/svg">
<path d="M12.2556 15.3159C11.2262 15.2597 10.7957 14.7357 10.0096 14.2303C9.57916 16.5512 8.99895 18.7784 7.42676 19.9389C6.94013 16.4389 8.13799 13.7998 8.7182 11.0111C7.76366 9.38272 8.84922 6.10732 10.8706 6.91213C13.3973 7.92283 8.69948 12.9576 11.8252 13.5939C15.1193 14.249 16.4481 7.88539 14.408 5.84529C11.4695 2.83192 5.85456 5.7517 6.54708 10.0191C6.71553 11.0672 7.80109 11.3667 6.97756 12.8266C5.08718 12.4148 4.5444 10.9175 4.60055 8.95224C4.71285 5.71427 7.50162 3.46828 10.3091 3.13138C13.8653 2.71962 17.1968 4.42283 17.646 7.75438C18.1514 11.5164 16.0738 15.5966 12.2556 15.3159Z" fill="#20C997"/>
</svg>
