<svg width="22" height="22" viewBox="0 0 22 22" fill="none" xmlns="http://www.w3.org/2000/svg">
<path d="M11.2324 6.85767C8.83666 6.85767 6.89014 8.80419 6.89014 11.1999C6.89014 13.5956 8.83666 15.5422 11.2324 15.5422C13.6281 15.5422 15.5746 13.5956 15.5746 11.1999C15.5746 8.80419 13.6281 6.85767 11.2324 6.85767ZM11.2324 13.6892C9.84736 13.6892 8.74308 12.5662 8.74308 11.1999C8.72436 9.81488 9.86607 8.71061 11.2324 8.71061C12.5987 8.71061 13.7217 9.8336 13.7217 11.1999C13.7404 12.5849 12.6174 13.6892 11.2324 13.6892Z" fill="#20C997"/>
<path d="M15.687 5.71606C15.1255 5.71606 14.6763 6.18398 14.6763 6.72676C14.6763 7.26954 15.1442 7.73745 15.687 7.73745C16.2485 7.73745 16.6977 7.26954 16.6977 6.72676C16.6977 6.18398 16.2485 5.71606 15.687 5.71606Z" fill="#20C997"/>
<path d="M15.4065 2.75879H7.04017C4.7006 2.75879 2.7915 4.6866 2.7915 7.00745V15.3738C2.7915 17.7321 4.7006 19.6411 7.04017 19.6411H15.4065C17.7648 19.6411 19.6551 17.7321 19.6551 15.3925V7.00745C19.6364 4.64916 17.7273 2.75879 15.4065 2.75879ZM17.8022 15.3738C17.8022 16.7026 16.7166 17.7695 15.4065 17.7695H7.04017C5.71129 17.7695 4.64445 16.6839 4.64445 15.3738V7.00745C4.64445 5.67858 5.73001 4.61173 7.04017 4.61173H15.4065C16.7354 4.61173 17.8022 5.69729 17.8022 7.00745V15.3738Z" fill="#20C997"/>
</svg>
