<svg width="22" height="22" viewBox="0 0 22 22" fill="none" xmlns="http://www.w3.org/2000/svg">
<path d="M11.1323 6.53772C8.73656 6.53772 6.79004 8.48424 6.79004 10.88C6.79004 13.2757 8.73656 15.2222 11.1323 15.2222C13.528 15.2222 15.4745 13.2757 15.4745 10.88C15.4745 8.48424 13.528 6.53772 11.1323 6.53772ZM11.1323 13.3693C9.74726 13.3693 8.64298 12.2463 8.64298 10.88C8.62426 9.49494 9.76597 8.39066 11.1323 8.39066C12.4986 8.39066 13.6216 9.51365 13.6216 10.88C13.6403 12.265 12.5173 13.3693 11.1323 13.3693Z" fill="#20C997"/>
<path d="M15.5869 5.396C15.0254 5.396 14.5762 5.86391 14.5762 6.40669C14.5762 6.94947 15.0441 7.41739 15.5869 7.41739C16.1484 7.41739 16.5976 6.94947 16.5976 6.40669C16.5976 5.86391 16.1484 5.396 15.5869 5.396Z" fill="#20C997"/>
<path d="M15.3064 2.43884H6.94007C4.6005 2.43884 2.69141 4.36665 2.69141 6.68751V15.0538C2.69141 17.4121 4.6005 19.3212 6.94007 19.3212H15.3064C17.6647 19.3212 19.555 17.4121 19.555 15.0725V6.68751C19.5363 4.32922 17.6272 2.43884 15.3064 2.43884ZM17.7021 15.0538C17.7021 16.3827 16.6165 17.4495 15.3064 17.4495H6.94007C5.61119 17.4495 4.54435 16.364 4.54435 15.0538V6.68751C4.54435 5.35863 5.62991 4.29178 6.94007 4.29178H15.3064C16.6353 4.29178 17.7021 5.37735 17.7021 6.68751V15.0538Z" fill="#20C997"/>
</svg>
